<svg version="1.0" xmlns="http://www.w3.org/2000/svg"
 width="314.000000pt" height="309.000000pt" viewBox="0 0 314.000000 309.000000"
 preserveAspectRatio="xMidYMid meet">
<metadata>
Created by potrace 1.16, written by Peter Selinger 2001-2019
</metadata>
<g transform="translate(0.000000,309.000000) scale(0.100000,-0.100000)"
fill="#000000" stroke="none">
<path d="M1941 3032 c-44 -24 -71 -74 -71 -132 0 -60 29 -106 83 -130 38 -18
68 -20 322 -20 l280 0 -707 -707 c-393 -394 -712 -720 -717 -736 -43 -113 57
-223 176 -197 31 7 143 115 750 722 l713 713 0 -295 c0 -278 1 -297 20 -328
42 -69 142 -88 219 -41 61 37 61 38 61 579 l0 490 -48 50 -48 50 -500 0 c-464
0 -502 -1 -533 -18z"/>
<path d="M378 2581 c-145 -47 -255 -161 -292 -306 -14 -51 -16 -177 -16 -951
0 -846 1 -895 19 -953 26 -85 61 -140 126 -199 67 -61 140 -98 226 -111 87
-15 1721 -15 1808 0 86 13 159 50 226 111 65 59 100 114 126 199 18 56 19 99
19 566 0 560 1 552 -65 593 -43 26 -129 27 -168 1 -65 -42 -62 -16 -67 -577
l-5 -511 -28 -36 c-18 -24 -41 -40 -67 -47 -26 -7 -320 -10 -899 -8 -851 3
-860 3 -888 24 -15 11 -36 36 -45 55 -17 32 -18 95 -18 891 0 759 2 862 16
897 31 79 7 75 574 81 548 5 541 5 583 62 12 16 22 48 24 80 5 65 -18 113 -68
140 -31 17 -68 18 -549 17 -471 0 -520 -2 -572 -18z"/>
</g>
</svg>